<mxfile host="app.diagrams.net" modified="2020-03-22T13:32:23.805Z" agent="Mozilla/5.0 (Macintosh; Intel Mac OS X 10_14_2) AppleWebKit/605.1.15 (KHTML, like Gecko) Version/12.0.2 Safari/605.1.15" etag="6fkm3ZV3WfPZpeK9yHhL" version="12.8.8" type="github">
  <diagram id="xJZD7wyvopv8Ram0ppgy" name="Page-1">
    <mxGraphModel dx="925" dy="634" grid="1" gridSize="10" guides="1" tooltips="1" connect="1" arrows="1" fold="1" page="1" pageScale="1" pageWidth="850" pageHeight="1100" math="0" shadow="0">
      <root>
        <mxCell id="0" />
        <mxCell id="1" parent="0" />
        <mxCell id="B173xY29Odf3xIkyXy2j-1" value="Put inventory online" style="rounded=1;whiteSpace=wrap;html=1;" vertex="1" parent="1">
          <mxGeometry x="160" y="60" width="120" height="60" as="geometry" />
        </mxCell>
        <mxCell id="B173xY29Odf3xIkyXy2j-2" value="Shop" style="shape=umlActor;verticalLabelPosition=bottom;labelBackgroundColor=#ffffff;verticalAlign=top;html=1;outlineConnect=0;" vertex="1" parent="1">
          <mxGeometry x="100" y="110" width="30" height="60" as="geometry" />
        </mxCell>
        <mxCell id="B173xY29Odf3xIkyXy2j-6" value="" style="endArrow=none;html=1;" edge="1" parent="1">
          <mxGeometry width="50" height="50" relative="1" as="geometry">
            <mxPoint x="320" as="sourcePoint" />
            <mxPoint x="320" y="760" as="targetPoint" />
          </mxGeometry>
        </mxCell>
        <mxCell id="B173xY29Odf3xIkyXy2j-7" value="" style="endArrow=none;html=1;" edge="1" parent="1">
          <mxGeometry width="50" height="50" relative="1" as="geometry">
            <mxPoint x="840" y="280" as="sourcePoint" />
            <mxPoint y="280" as="targetPoint" />
          </mxGeometry>
        </mxCell>
        <mxCell id="B173xY29Odf3xIkyXy2j-8" value="User&lt;br&gt;" style="shape=umlActor;verticalLabelPosition=bottom;labelBackgroundColor=#ffffff;verticalAlign=top;html=1;outlineConnect=0;" vertex="1" parent="1">
          <mxGeometry x="370" y="90" width="30" height="60" as="geometry" />
        </mxCell>
        <mxCell id="B173xY29Odf3xIkyXy2j-9" value="Put home inventory online" style="rounded=1;whiteSpace=wrap;html=1;" vertex="1" parent="1">
          <mxGeometry x="440" y="30" width="120" height="60" as="geometry" />
        </mxCell>
        <mxCell id="B173xY29Odf3xIkyXy2j-10" value="" style="endArrow=none;html=1;" edge="1" parent="1">
          <mxGeometry width="50" height="50" relative="1" as="geometry">
            <mxPoint x="600" as="sourcePoint" />
            <mxPoint x="600" y="760" as="targetPoint" />
          </mxGeometry>
        </mxCell>
        <mxCell id="B173xY29Odf3xIkyXy2j-11" value="Prepare shopping cart based on &quot;will be missing soon&quot; + wish list" style="rounded=1;whiteSpace=wrap;html=1;" vertex="1" parent="1">
          <mxGeometry x="680" y="100" width="120" height="60" as="geometry" />
        </mxCell>
        <mxCell id="B173xY29Odf3xIkyXy2j-12" value="User&lt;br&gt;" style="shape=umlActor;verticalLabelPosition=bottom;labelBackgroundColor=#ffffff;verticalAlign=top;html=1;outlineConnect=0;" vertex="1" parent="1">
          <mxGeometry x="640" y="390" width="30" height="60" as="geometry" />
        </mxCell>
        <mxCell id="B173xY29Odf3xIkyXy2j-13" value="" style="ellipse;shape=cloud;whiteSpace=wrap;html=1;" vertex="1" parent="1">
          <mxGeometry x="650" y="160" width="120" height="80" as="geometry" />
        </mxCell>
        <mxCell id="B173xY29Odf3xIkyXy2j-14" value="User is notified of found solution(s) for his cart: map with shops matching" style="rounded=1;whiteSpace=wrap;html=1;" vertex="1" parent="1">
          <mxGeometry x="670" y="300" width="120" height="60" as="geometry" />
        </mxCell>
        <mxCell id="B173xY29Odf3xIkyXy2j-18" value="User chose the cart(s) of his liking" style="rounded=1;whiteSpace=wrap;html=1;" vertex="1" parent="1">
          <mxGeometry x="470" y="300" width="120" height="60" as="geometry" />
        </mxCell>
        <mxCell id="B173xY29Odf3xIkyXy2j-19" value="Shop" style="shape=umlActor;verticalLabelPosition=bottom;labelBackgroundColor=#ffffff;verticalAlign=top;html=1;outlineConnect=0;" vertex="1" parent="1">
          <mxGeometry x="180" y="380" width="30" height="60" as="geometry" />
        </mxCell>
        <mxCell id="B173xY29Odf3xIkyXy2j-20" value="Shop is notified to prep the cart" style="rounded=1;whiteSpace=wrap;html=1;" vertex="1" parent="1">
          <mxGeometry x="190" y="310" width="120" height="60" as="geometry" />
        </mxCell>
        <mxCell id="B173xY29Odf3xIkyXy2j-21" value="" style="ellipse;shape=cloud;whiteSpace=wrap;html=1;" vertex="1" parent="1">
          <mxGeometry x="380" y="360" width="120" height="80" as="geometry" />
        </mxCell>
        <mxCell id="B173xY29Odf3xIkyXy2j-22" value="Shop prep the cart&amp;nbsp;" style="rounded=1;whiteSpace=wrap;html=1;" vertex="1" parent="1">
          <mxGeometry x="30" y="430" width="120" height="60" as="geometry" />
        </mxCell>
        <mxCell id="B173xY29Odf3xIkyXy2j-25" value="" style="endArrow=none;html=1;" edge="1" parent="1">
          <mxGeometry width="50" height="50" relative="1" as="geometry">
            <mxPoint x="847" y="520" as="sourcePoint" />
            <mxPoint x="7" y="520" as="targetPoint" />
          </mxGeometry>
        </mxCell>
        <mxCell id="B173xY29Odf3xIkyXy2j-26" value="#1" style="text;html=1;strokeColor=none;fillColor=none;align=center;verticalAlign=middle;whiteSpace=wrap;rounded=0;" vertex="1" parent="1">
          <mxGeometry x="270" y="10" width="40" height="20" as="geometry" />
        </mxCell>
        <mxCell id="B173xY29Odf3xIkyXy2j-27" value="#2" style="text;html=1;strokeColor=none;fillColor=none;align=center;verticalAlign=middle;whiteSpace=wrap;rounded=0;" vertex="1" parent="1">
          <mxGeometry x="550" y="10" width="40" height="20" as="geometry" />
        </mxCell>
        <mxCell id="B173xY29Odf3xIkyXy2j-30" value="#3" style="text;html=1;strokeColor=none;fillColor=none;align=center;verticalAlign=middle;whiteSpace=wrap;rounded=0;" vertex="1" parent="1">
          <mxGeometry x="790" y="20" width="40" height="20" as="geometry" />
        </mxCell>
        <mxCell id="B173xY29Odf3xIkyXy2j-33" value="#4" style="text;html=1;strokeColor=none;fillColor=none;align=center;verticalAlign=middle;whiteSpace=wrap;rounded=0;" vertex="1" parent="1">
          <mxGeometry x="800" y="290" width="40" height="20" as="geometry" />
        </mxCell>
        <mxCell id="B173xY29Odf3xIkyXy2j-34" value="#5" style="text;html=1;strokeColor=none;fillColor=none;align=center;verticalAlign=middle;whiteSpace=wrap;rounded=0;" vertex="1" parent="1">
          <mxGeometry x="385" y="290" width="40" height="20" as="geometry" />
        </mxCell>
        <mxCell id="B173xY29Odf3xIkyXy2j-35" value="#6" style="text;html=1;strokeColor=none;fillColor=none;align=center;verticalAlign=middle;whiteSpace=wrap;rounded=0;" vertex="1" parent="1">
          <mxGeometry x="100" y="300" width="40" height="20" as="geometry" />
        </mxCell>
        <mxCell id="B173xY29Odf3xIkyXy2j-36" value="User&lt;br&gt;" style="shape=umlActor;verticalLabelPosition=bottom;labelBackgroundColor=#ffffff;verticalAlign=top;html=1;outlineConnect=0;" vertex="1" parent="1">
          <mxGeometry x="90" y="590" width="30" height="60" as="geometry" />
        </mxCell>
        <mxCell id="B173xY29Odf3xIkyXy2j-37" value="User is notified that cart have to be pickup @ time @ place" style="rounded=1;whiteSpace=wrap;html=1;" vertex="1" parent="1">
          <mxGeometry x="160" y="550" width="120" height="60" as="geometry" />
        </mxCell>
        <mxCell id="B173xY29Odf3xIkyXy2j-38" value="" style="shape=mxgraph.signs.transportation.car_3;html=1;fillColor=#000000;strokeColor=none;verticalLabelPosition=bottom;verticalAlign=top;align=center;direction=east;flipH=1;" vertex="1" parent="1">
          <mxGeometry x="720" y="640" width="110" height="38" as="geometry" />
        </mxCell>
        <mxCell id="B173xY29Odf3xIkyXy2j-39" value="Shop" style="shape=umlActor;verticalLabelPosition=bottom;labelBackgroundColor=#ffffff;verticalAlign=top;html=1;outlineConnect=0;" vertex="1" parent="1">
          <mxGeometry x="610" y="610" width="30" height="60" as="geometry" />
        </mxCell>
        <mxCell id="B173xY29Odf3xIkyXy2j-40" value="" style="shape=image;html=1;verticalAlign=top;verticalLabelPosition=bottom;labelBackgroundColor=#ffffff;imageAspect=0;aspect=fixed;image=https://cdn3.iconfinder.com/data/icons/geosm-e-commerce/48/pack-128.png" vertex="1" parent="1">
          <mxGeometry x="660" y="626" width="54" height="54" as="geometry" />
        </mxCell>
        <mxCell id="B173xY29Odf3xIkyXy2j-41" value="Goods are dropped in the trunk" style="rounded=1;whiteSpace=wrap;html=1;" vertex="1" parent="1">
          <mxGeometry x="710" y="550" width="120" height="60" as="geometry" />
        </mxCell>
        <mxCell id="B173xY29Odf3xIkyXy2j-42" value="" style="shape=mxgraph.signs.transportation.car_3;html=1;fillColor=#000000;strokeColor=none;verticalLabelPosition=bottom;verticalAlign=top;align=center;direction=east;flipH=1;" vertex="1" parent="1">
          <mxGeometry x="340" y="621" width="110" height="38" as="geometry" />
        </mxCell>
        <mxCell id="B173xY29Odf3xIkyXy2j-43" value="" style="shape=image;html=1;verticalAlign=top;verticalLabelPosition=bottom;labelBackgroundColor=#ffffff;imageAspect=0;aspect=fixed;image=https://cdn1.iconfinder.com/data/icons/windows8_icons_iconpharm/26/qr_code.png" vertex="1" parent="1">
          <mxGeometry x="470" y="600" width="26" height="26" as="geometry" />
        </mxCell>
        <mxCell id="B173xY29Odf3xIkyXy2j-44" value="Shop" style="shape=umlActor;verticalLabelPosition=bottom;labelBackgroundColor=#ffffff;verticalAlign=top;html=1;outlineConnect=0;" vertex="1" parent="1">
          <mxGeometry x="540" y="590" width="30" height="60" as="geometry" />
        </mxCell>
        <mxCell id="B173xY29Odf3xIkyXy2j-45" value="" style="shape=image;html=1;verticalAlign=top;verticalLabelPosition=bottom;labelBackgroundColor=#ffffff;imageAspect=0;aspect=fixed;image=https://cdn0.iconfinder.com/data/icons/fatcow/32/light_circle_green.png" vertex="1" parent="1">
          <mxGeometry x="518" y="540" width="32" height="32" as="geometry" />
        </mxCell>
        <mxCell id="B173xY29Odf3xIkyXy2j-46" value="User pay using contactless QR code with validation sent to Shop" style="rounded=1;whiteSpace=wrap;html=1;" vertex="1" parent="1">
          <mxGeometry x="335" y="540" width="120" height="60" as="geometry" />
        </mxCell>
      </root>
    </mxGraphModel>
  </diagram>
</mxfile>
